<svg viewBox="0 0 24 24" xmlns="http://www.w3.org/2000/svg"><path fill="#FFF" fill-opacity=".01" d="M24 0v24H0V0Z"/><g fill="#10161F"><path d="M9.22 8.81l-2.86 4.95 1.73 1 2.85-4.95L9.2 8.8Zm3.82 1l2.85 4.95 1.73-1.01 -2.86-4.95 -1.74 1Zm-4.22 9.18h6.34v-2H8.82v2Z"/><path d="M14 7c0 1.1-.9 2-2 2 -1.11 0-2-.9-2-2 0-1.11.89-2 2-2 1.1 0 2 .89 2 2Zm2 0c0-2.21-1.8-4-4-4C9.79 3 8 4.79 8 7c0 2.2 1.79 4 4 4 2.2 0 4-1.8 4-4ZM8 17c0 1.1-.9 2-2 2 -1.11 0-2-.9-2-2 0-1.11.89-2 2-2 1.1 0 2 .89 2 2Zm2 0c0-2.21-1.8-4-4-4 -2.21 0-4 1.79-4 4 0 2.2 1.79 4 4 4 2.2 0 4-1.8 4-4Zm10 0c0 1.1-.9 2-2 2 -1.11 0-2-.9-2-2 0-1.11.89-2 2-2 1.1 0 2 .89 2 2Zm2 0c0-2.21-1.8-4-4-4 -2.21 0-4 1.79-4 4 0 2.2 1.79 4 4 4 2.2 0 4-1.8 4-4Z"/></g></svg>